<svg width="19" height="19" viewBox="0 0 19 19" fill="none" xmlns="http://www.w3.org/2000/svg">
<path d="M12.0216 18.4618H10.0216V15.4618H8.02161V18.4618H6.02161V16.4618H4.02161V18.4618H1.02161C0.75639 18.4618 0.502036 18.3564 0.3145 18.1689C0.126963 17.9813 0.0216064 17.727 0.0216064 17.4618V14.4618H2.02161V12.4618H0.0216064V10.4618H3.02161V8.46176H0.0216064V6.46176H2.02161V4.46176H0.0216064V1.46176C0.0216064 1.19654 0.126963 0.942191 0.3145 0.754655C0.502036 0.567118 0.75639 0.461761 1.02161 0.461761H7.02161C7.28682 0.461761 7.54118 0.567118 7.72871 0.754655C7.91625 0.942191 8.02161 1.19654 8.02161 1.46176V10.4618H17.0216C17.2868 10.4618 17.5412 10.5671 17.7287 10.7547C17.9163 10.9422 18.0216 11.1965 18.0216 11.4618V17.4618C18.0216 17.727 17.9163 17.9813 17.7287 18.1689C17.5412 18.3564 17.2868 18.4618 17.0216 18.4618H14.0216V16.4618H12.0216V18.4618Z" fill="white"/>
</svg>
