<svg width="23" height="17" viewBox="0 0 23 17" fill="none" xmlns="http://www.w3.org/2000/svg">
<path d="M16.2042 3.9053H19.2042L22.2042 7.9613V13.9053H20.1692C20.0503 14.7396 19.6344 15.503 18.9979 16.0552C18.3614 16.6075 17.5469 16.9116 16.7042 16.9116C15.8615 16.9116 15.0471 16.6075 14.4105 16.0552C13.774 15.503 13.3581 14.7396 13.2392 13.9053H8.16922C8.05034 14.7396 7.63444 15.503 6.9979 16.0552C6.36137 16.6075 5.54694 16.9116 4.70422 16.9116C3.86151 16.9116 3.04708 16.6075 2.41054 16.0552C1.77401 15.503 1.3581 14.7396 1.23922 13.9053H0.204224V1.9053C0.204224 1.64009 0.30958 1.38573 0.497117 1.1982C0.684653 1.01066 0.939007 0.905304 1.20422 0.905304H15.2042C15.4694 0.905304 15.7238 1.01066 15.9113 1.1982C16.0989 1.38573 16.2042 1.64009 16.2042 1.9053V3.9053ZM16.2042 5.9053V8.9053H20.2042V8.6203L18.1962 5.9053H16.2042Z" fill="white"/>
</svg>
