<svg width="20" height="21" viewBox="0 0 20 21" fill="none" xmlns="http://www.w3.org/2000/svg">
<path d="M17.9262 10.4266L19.4572 13.0786C20.4242 14.7526 19.8502 16.8936 18.1772 17.8596C17.6442 18.1666 17.0412 18.3286 16.4272 18.3286H14.3642V20.3286L9.36419 16.8286L14.3642 13.3286V15.3286H16.4262C16.5142 15.3286 16.6002 15.3056 16.6762 15.2616C16.8892 15.1386 16.9772 14.8836 16.8972 14.6606L16.8592 14.5786L15.3282 11.9266L17.9262 10.4266V10.4266ZM6.10119 7.71259L6.63119 13.7926L4.90119 12.7926L3.86919 14.5786C3.82519 14.6546 3.80219 14.7406 3.80219 14.8286C3.80219 15.0736 3.97919 15.2786 4.21219 15.3206L4.30219 15.3286H7.36419V18.3286H4.30219C2.36919 18.3286 0.80219 16.7616 0.80219 14.8286C0.80219 14.2146 0.96419 13.6106 1.27119 13.0786L2.30219 11.2926L0.57019 10.2926L6.10019 7.71259H6.10119ZM12.1142 1.29759C12.6462 1.60459 13.0882 2.04659 13.3952 2.57859L14.4252 4.36459L16.1582 3.36459L15.6282 9.44459L10.0962 6.86459L11.8282 5.86459L10.7972 4.07859C10.7532 4.00259 10.6902 3.93859 10.6142 3.89559C10.4012 3.77259 10.1362 3.82359 9.98319 4.00559L9.93119 4.07859L8.40119 6.73059L5.80219 5.23059L7.33219 2.57859C8.29919 0.904586 10.4402 0.330586 12.1142 1.29759V1.29759Z" fill="white"/>
</svg>
