<svg width="25" height="27" viewBox="0 0 25 27" fill="none" xmlns="http://www.w3.org/2000/svg">
<path d="M4.68827 0.244873H19.3549C19.5619 0.244873 19.7661 0.293066 19.9512 0.385637C20.1364 0.478207 20.2974 0.612612 20.4216 0.778207L24.0216 5.57821V25.5782C24.0216 25.9318 23.8811 26.271 23.6311 26.521C23.381 26.7711 23.0419 26.9115 22.6883 26.9115H1.35494C1.00132 26.9115 0.662179 26.7711 0.412131 26.521C0.162082 26.271 0.0216064 25.9318 0.0216064 25.5782V5.57821L3.62161 0.778207C3.7458 0.612612 3.90685 0.478207 4.09199 0.385637C4.27713 0.293066 4.48128 0.244873 4.68827 0.244873ZM20.6883 5.57821L18.6883 2.91154H5.35494L3.35494 5.57821H20.6883ZM8.02161 10.9115H5.35494V13.5782C5.35494 15.3463 6.05732 17.042 7.30756 18.2923C8.5578 19.5425 10.2535 20.2449 12.0216 20.2449C13.7897 20.2449 15.4854 19.5425 16.7357 18.2923C17.9859 17.042 18.6883 15.3463 18.6883 13.5782V10.9115H16.0216V13.5782C16.0216 14.6391 15.6002 15.6565 14.85 16.4066C14.0999 17.1568 13.0825 17.5782 12.0216 17.5782C10.9607 17.5782 9.94332 17.1568 9.19318 16.4066C8.44303 15.6565 8.02161 14.6391 8.02161 13.5782V10.9115Z" fill="white"/>
</svg>
